<svg id="Layer_1" enable-background="new 0 0 512 512" height="512" viewBox="0 0 512 512" width="512" xmlns="http://www.w3.org/2000/svg"><g><g><g><g><g><g id="XMLID_693_"><g id="XMLID_694_"><g id="XMLID_695_"><g id="XMLID_711_"><g id="XMLID_712_"><g id="XMLID_713_"><g id="XMLID_714_"><g id="XMLID_715_"><g id="XMLID_716_"><g id="XMLID_717_"><g id="XMLID_718_"><g id="XMLID_719_"><g id="XMLID_720_"><g id="XMLID_721_"><g id="XMLID_785_"><circle cx="256" cy="256" fill="#a733c1" r="256"/></g></g></g></g></g></g></g></g></g></g></g></g></g></g></g></g></g></g></g><path d="m511.97 259.957-163.783-163.959s-23.633 6.77-29.018 9.507l-27.955-28.023-153.136 335.719s68.87 69.059 97.913 98.028c6.602.511 13.275.771 20.009.771 140.064 0 253.855-112.483 255.97-252.043z" fill="#9330a0"/><g><g><g><path d="m388.595 384.022h-70.119v-40h70.119c8.838 0 16.028-7.19 16.028-16.028v-70.694c0-8.838-7.19-16.028-16.028-16.028h-70.119v-40h70.119c30.895 0 56.028 25.134 56.028 56.028v70.694c0 30.893-25.134 56.028-56.028 56.028z" fill="#ddd"/></g><g><path d="m304.328 426.018h-131.574c-29.444 0-53.313-23.869-53.313-53.313v-201.042l119.1-8.822 119.1 8.822v201.042c0 29.444-23.869 53.313-53.313 53.313z" fill="#ffe027"/><path d="m357.64 171.66v201.05c0 29.44-23.87 53.31-53.31 53.31h-65.55v-263.16z" fill="#f7bc00"/><g><path d="m195.165 341.505h-11.794c-9.494 0-17.191-7.697-17.191-17.191v-71.594c0-9.494 7.697-17.191 17.191-17.191h11.794c9.494 0 17.191 7.697 17.191 17.191v71.594c0 9.494-7.697 17.191-17.191 17.191z" fill="#ffaf22"/><path d="m293.711 341.505h-11.794c-9.494 0-17.191-7.697-17.191-17.191v-71.594c0-9.494 7.697-17.191 17.191-17.191h11.794c9.494 0 17.191 7.697 17.191 17.191v71.594c0 9.494-7.697 17.191-17.191 17.191z" fill="#e88900"/></g></g></g><path d="m358.117 122.242c0-21.894-17.748-39.642-39.642-39.642-7.319 0-14.174 1.984-20.059 5.443-6.311-13.526-20.033-22.899-35.943-22.899-7.77 0-15.017 2.236-21.134 6.098-7.24-9.523-18.69-15.671-31.576-15.671-18.219 0-33.567 12.291-38.206 29.033-3.923-1.299-8.116-2.004-12.475-2.004-21.894 0-39.642 17.748-39.642 39.642v49.421h238.2z" fill="#fff"/><path d="m358.12 122.24-.48 49.42h-118.86v-103.46c.9.97 1.76 1.98 2.56 3.04 6.12-3.86 13.36-6.1 21.13-6.1 15.91 0 29.64 9.38 35.95 22.9 5.88-3.46 12.74-5.44 20.06-5.44 21.89 0 39.64 17.75 39.64 39.64z" fill="#ddd"/></g></g></svg>