<svg height="512pt" viewBox="0 0 512 512" width="512pt" xmlns="http://www.w3.org/2000/svg"><path d="m485.082031 286.160156c11.453125-5.21875 19.417969-16.753906 19.417969-30.160156s-7.964844-24.941406-19.417969-30.160156c9.710938-8 14.421875-21.207032 10.949219-34.15625-3.46875-12.949219-14.148438-22.03125-26.5625-24.105469 7.308594-10.242187 8.441406-24.21875 1.738281-35.828125s-19.371093-17.617188-31.898437-16.410156c4.410156-11.785156 1.886718-25.574219-7.59375-35.054688-9.480469-9.480468-23.269532-12.003906-35.054688-7.59375 1.207032-12.527344-4.800781-25.195312-16.410156-31.898437s-25.585938-5.570313-35.828125 1.738281c-2.074219-12.414062-11.15625-23.09375-24.105469-26.5625-12.949218-3.46875-26.15625 1.238281-34.15625 10.949219-5.21875-11.453125-16.753906-19.417969-30.160156-19.417969s-24.941406 7.964844-30.160156 19.417969c-8-9.710938-21.207032-14.421875-34.15625-10.949219-12.949219 3.46875-22.03125 14.148438-24.105469 26.558594-10.242187-7.308594-24.21875-8.4375-35.828125-1.734375s-17.617188 19.367187-16.410156 31.894531c-11.785156-4.410156-25.574219-1.882812-35.054688 7.59375-9.480468 9.480469-12.003906 23.273438-7.597656 35.058594-12.523438-1.207032-25.191406 4.800781-31.894531 16.410156s-5.574219 25.582031 1.734375 35.824219c-12.410156 2.078125-23.089844 11.160156-26.558594 24.109375-3.472656 12.945312 1.238281 26.152344 10.949219 34.15625-11.453125 5.21875-19.417969 16.753906-19.417969 30.160156s7.964844 24.941406 19.417969 30.160156c-9.710938 8-14.421875 21.207032-10.949219 34.15625 3.46875 12.949219 14.148438 22.03125 26.5625 24.105469-7.308594 10.242187-8.441406 24.21875-1.738281 35.828125s19.371093 17.617188 31.898437 16.410156c-4.410156 11.785156-1.882812 25.574219 7.59375 35.054688 9.480469 9.480468 23.269532 12.003906 35.058594 7.597656-1.210938 12.523438 4.800781 25.191406 16.410156 31.894531 11.605469 6.703125 25.582032 5.574219 35.824219-1.734375 2.074219 12.410156 11.160156 23.089844 24.105469 26.558594 12.949218 3.472656 26.15625-1.238281 34.160156-10.949219 5.214844 11.453125 16.75 19.417969 30.15625 19.417969s24.941406-7.964844 30.160156-19.417969c8 9.710938 21.207032 14.421875 34.15625 10.949219 12.949219-3.46875 22.03125-14.148438 24.105469-26.5625 10.242187 7.308594 24.21875 8.441406 35.828125 1.738281s17.617188-19.371093 16.410156-31.898437c11.785156 4.410156 25.574219 1.882812 35.054688-7.59375 9.480468-9.480469 12.003906-23.269532 7.59375-35.058594 12.527344 1.210938 25.195312-4.800781 31.898437-16.410156 6.703125-11.605469 5.570313-25.582032-1.738281-35.824219 12.414062-2.074219 23.09375-11.160156 26.5625-24.105469 3.472656-12.949218-1.238281-26.15625-10.949219-34.15625zm0 0" fill="#fda400"/><path d="m485.082031 286.160156c11.453125-5.21875 19.417969-16.753906 19.417969-30.160156s-7.964844-24.941406-19.417969-30.160156c9.710938-8 14.421875-21.207032 10.949219-34.15625-3.46875-12.949219-14.148438-22.03125-26.5625-24.105469 7.3125-10.242187 8.441406-24.21875 1.738281-35.828125s-19.371093-17.617188-31.894531-16.410156c4.40625-11.785156 1.882812-25.574219-7.597656-35.054688-9.476563-9.480468-23.269532-12.003906-35.054688-7.59375 1.207032-12.527344-4.800781-25.195312-16.410156-31.898437-9.054688-5.226563-19.539062-5.671875-28.578125-2.15625 1.519531.597656 3.015625 1.316406 4.472656 2.15625 11.609375 6.703125 17.617188 19.371093 16.410157 31.898437 11.785156-4.410156 25.574218-1.882812 35.054687 7.59375 9.480469 9.480469 12.003906 23.269532 7.59375 35.054688 12.527344-1.207032 25.195313 4.800781 31.898437 16.410156 6.703126 11.609375 5.570313 25.585938-1.738281 35.828125 12.410157 2.074219 23.089844 11.15625 26.5625 24.105469 3.46875 12.949218-1.238281 26.15625-10.949219 34.15625 11.449219 5.21875 19.417969 16.753906 19.417969 30.160156s-7.96875 24.941406-19.417969 30.160156c9.710938 8 14.417969 21.207032 10.949219 34.15625-3.472656 12.949219-14.152343 22.03125-26.5625 24.105469 7.308594 10.242187 8.4375 24.21875 1.738281 35.828125-6.703124 11.609375-19.371093 17.617188-31.898437 16.410156 4.410156 11.785156 1.886719 25.574219-7.59375 35.054688-9.480469 9.480468-23.269531 12.003906-35.054687 7.59375 1.207031 12.527344-4.800782 25.195312-16.410157 31.898437-1.457031.839844-2.953125 1.558594-4.472656 2.15625 9.039063 3.515625 19.523437 3.070313 28.578125-2.15625 11.609375-6.703125 17.617188-19.371093 16.410156-31.898437 11.785156 4.410156 25.574219 1.886718 35.054688-7.59375 9.480468-9.480469 12.003906-23.269532 7.59375-35.054688 12.527344 1.207032 25.195312-4.800781 31.898437-16.410156s5.570313-25.585938-1.738281-35.828125c12.414062-2.074219 23.09375-11.15625 26.5625-24.105469 3.472656-12.949218-1.238281-26.15625-10.949219-34.15625zm0 0" fill="#fd7e00"/><path d="m438.234375 256.003906c0 100.644532-81.589844 182.234375-182.234375 182.234375s-182.234375-81.589843-182.234375-182.234375c0-100.648437 81.589844-182.238281 182.234375-182.238281s182.234375 81.589844 182.234375 182.238281zm0 0" fill="#fdbf00"/><path d="m256 73.765625c-3.355469 0-6.6875.097656-10 .277344 95.992188 5.191406 167.234375 84.667969 167.234375 181.960937 0 97.289063-71.242187 176.765625-167.234375 181.957032 3.3125.179687 6.644531.277343 10 .277343 100.644531 0 182.234375-81.589843 182.234375-182.234375 0-100.648437-81.589844-182.238281-182.234375-182.238281zm0 0" fill="#fd7e00"/><path d="m351.179688 322.273438c-20.957032 30.039062-55.773438 49.695312-95.179688 49.695312s-74.226562-19.65625-95.179688-49.699219v-132.539062c20.957032-30.042969 55.773438-49.695313 95.179688-49.695313s74.21875 19.652344 95.175781 49.695313zm0 0" fill="#d9e7ec"/><path d="m351.179688 189.730469c-20.957032-30.042969-55.773438-49.695313-95.179688-49.695313-3.371094 0-6.703125.152344-10 .433594 35.253906 3.011719 62.011719 21.789062 81.175781 49.261719l.003907 132.539062c-19.164063 27.472657-45.921876 46.25-81.179688 49.261719 3.296875.28125 6.628906.4375 10 .4375 39.40625 0 74.222656-19.65625 95.179688-49.699219zm0 0" fill="#aad4ec"/><path d="m438.234375 256.003906c0-23.382812-4.410156-45.730468-12.429687-66.269531h-339.609376c-8.023437 20.539063-12.429687 42.886719-12.429687 66.269531 0 23.378906 4.40625 45.726563 12.429687 66.265625h339.609376c8.023437-20.542969 12.429687-42.886719 12.429687-66.265625zm0 0" fill="#65db55"/><path d="m148.316406 256c0 9.152344-7.417968 16.566406-16.566406 16.566406-9.152344 0-16.566406-7.414062-16.566406-16.566406 0-9.148438 7.414062-16.566406 16.566406-16.566406 9.148438 0 16.566406 7.417968 16.566406 16.566406zm0 0" fill="#d9e7ec"/><path d="m396.816406 256c0 9.152344-7.414062 16.566406-16.566406 16.566406-9.148438 0-16.566406-7.414062-16.566406-16.566406 0-9.148438 7.417968-16.566406 16.566406-16.566406 9.152344 0 16.566406 7.417968 16.566406 16.566406zm0 0" fill="#d9e7ec"/><path d="m261.378906 227.992188 5.867188 11.886718c.875 1.769532 2.5625 3 4.519531 3.28125l13.117187 1.90625c4.921876.714844 6.886719 6.761719 3.328126 10.234375l-9.496094 9.253907c-1.414063 1.378906-2.058594 3.363281-1.726563 5.3125l2.242188 13.066406c.839843 4.902344-4.304688 8.636718-8.707031 6.324218l-11.734376-6.167968c-1.746093-.921875-3.835937-.921875-5.582031 0l-11.734375 6.167968c-4.402344 2.3125-9.546875-1.425781-8.707031-6.324218l2.242187-13.066406c.335938-1.945313-.3125-3.933594-1.726562-5.3125l-9.492188-9.253907c-3.5625-3.472656-1.597656-9.519531 3.324219-10.234375l13.121094-1.90625c1.953125-.28125 3.644531-1.511718 4.515625-3.28125l5.867188-11.886718c2.203124-4.460938 8.5625-4.460938 10.761718 0zm0 0" fill="#fdbf00"/><path d="m438.121094 249.910156c-.03125-.988281-.0625-1.976562-.109375-2.957031-.03125-.628906-.074219-1.257813-.113281-1.882813-.050782-.867187-.097657-1.730468-.164063-2.589843-.046875-.683594-.109375-1.363281-.167969-2.042969-.066406-.796875-.132812-1.597656-.210937-2.394531-.070313-.714844-.148438-1.429688-.226563-2.144531-.082031-.75-.167968-1.5-.257812-2.25-.09375-.742188-.191406-1.484376-.289063-2.222657-.097656-.710937-.195312-1.421875-.300781-2.132812-.109375-.765625-.230469-1.53125-.351562-2.292969-.105469-.671875-.21875-1.339844-.332032-2.007812-.136718-.792969-.277344-1.582032-.421875-2.371094-.117187-.628906-.238281-1.257813-.363281-1.882813-.160156-.816406-.324219-1.636719-.492188-2.449219-.125-.578124-.25-1.15625-.378906-1.734374-.1875-.855469-.378906-1.707032-.578125-2.558594-.121093-.511719-.25-1.019532-.375-1.527344-.222656-.910156-.445312-1.816406-.679687-2.71875-.109375-.410156-.222656-.824219-.335938-1.234375-.265625-.992187-.535156-1.980469-.816406-2.964844-.0625-.222656-.132812-.441406-.199219-.664062-1.5-5.148438-3.21875-10.203125-5.152343-15.152344h-24.003907c8.019531 20.539063 12.433594 42.886719 12.433594 66.269531 0 23.378906-4.414063 45.726563-12.433594 66.265625h24.007813c1.933594-4.953125 3.652344-10.011719 5.152344-15.160156.0625-.21875.132812-.4375.195312-.65625.28125-.984375.550781-1.976563.816406-2.964844.113282-.414062.226563-.820312.335938-1.234375.234375-.902344.457031-1.808594.679687-2.714844.125-.511718.253907-1.019531.375-1.527343.199219-.855469.390625-1.710938.578125-2.566407.128906-.574218.253906-1.148437.378906-1.726562.171876-.816406.335938-1.636719.496094-2.457031.121094-.625.242188-1.25.359375-1.875.144531-.789063.285157-1.582031.421875-2.375.117188-.667969.226563-1.335938.332032-2.003907.125-.765624.242187-1.53125.355468-2.296874.101563-.707032.199219-1.417969.296875-2.128907.101563-.742187.199219-1.484375.289063-2.226562.09375-.75.175781-1.496094.257812-2.246094.078125-.714844.15625-1.429687.226563-2.148437.078125-.796876.148437-1.59375.214843-2.394532.058594-.679687.117188-1.359375.167969-2.039062.0625-.863282.113281-1.726563.164063-2.589844.035156-.628906.078125-1.253906.109375-1.882812.050781-.984376.082031-1.96875.113281-2.953126.015625-.519531.042969-1.035156.054688-1.554687.039062-1.511719.058593-3.023437.058593-4.542969 0-1.519531-.023437-3.03125-.058593-4.539062-.015626-.523438-.039063-1.039063-.058594-1.554688zm0 0" fill="#40c75b"/><path d="m512 256c0-12.464844-5.757812-24.089844-15.226562-31.699219 7.175781-9.800781 9.730468-22.519531 6.503906-34.558593-3.226563-12.039063-11.796875-21.777344-22.914063-26.675782 4.398438-11.328125 3.570313-24.269531-2.660156-35.066406-6.230469-10.792969-17.027344-17.980469-29.039063-19.835938 1.316407-12.078124-2.832031-24.371093-11.644531-33.183593s-21.101562-12.960938-33.183593-11.644531c-1.855469-12.007813-9.042969-22.808594-19.835938-29.039063-10.796875-6.234375-23.742188-7.058594-35.066406-2.660156-4.898438-11.117188-14.636719-19.6875-26.675782-22.914063-12.039062-3.226562-24.757812-.671875-34.558593 6.503906-7.609375-9.46875-19.234375-15.226562-31.699219-15.226562s-24.089844 5.757812-31.699219 15.230469c-9.800781-7.179688-22.519531-9.734375-34.558593-6.507813-12.039063 3.226563-21.777344 11.796875-26.675782 22.914063-11.328125-4.394531-24.273437-3.570313-35.066406 2.660156-10.792969 6.234375-17.980469 17.03125-19.835938 29.039063-12.078124-1.316407-24.371093 2.832031-33.183593 11.644531-8.8125 8.816406-12.960938 21.105469-11.644531 33.183593-12.007813 1.855469-22.808594 9.042969-29.039063 19.835938-6.230469 10.796875-7.058594 23.742188-2.660156 35.066406-11.117188 4.898438-19.6875 14.636719-22.914063 26.675782-3.226562 12.039062-.671875 24.757812 6.507813 34.5625-9.472657 7.605468-15.230469 19.230468-15.230469 31.695312s5.757812 24.089844 15.226562 31.699219c-7.175781 9.800781-9.730468 22.519531-6.503906 34.558593 3.226563 12.039063 11.796875 21.777344 22.914063 26.675782-4.398438 11.328125-3.570313 24.273437 2.660156 35.066406 6.234375 10.792969 17.03125 17.980469 29.039063 19.835938-1.316407 12.078124 2.832031 24.371093 11.644531 33.183593s21.105469 12.960938 33.183593 11.644531c1.855469 12.007813 9.042969 22.804688 19.839844 29.039063 10.792969 6.230469 23.738282 7.054687 35.0625 2.660156 4.898438 11.117188 14.636719 19.6875 26.675782 22.914063 12.039062 3.226562 24.757812.671875 34.5625-6.507813 7.605468 9.472657 19.230468 15.230469 31.695312 15.230469s24.089844-5.757812 31.699219-15.226562c9.800781 7.175781 22.519531 9.730468 34.558593 6.503906 12.039063-3.226563 21.777344-11.796875 26.675782-22.914063 11.324218 4.398438 24.273437 3.570313 35.066406-2.660156 10.792969-6.234375 17.980469-17.03125 19.835938-29.039063 12.085937 1.316407 24.371093-2.832031 33.183593-11.644531s12.960938-21.105469 11.644531-33.183593c12.007813-1.855469 22.808594-9.042969 29.039063-19.835938s7.058594-23.738281 2.660156-35.066406c11.117188-4.898438 19.6875-14.636719 22.914063-26.675782 3.226562-12.039062.671875-24.757812-6.507813-34.558593 9.472657-7.609375 15.230469-19.234375 15.230469-31.699219zm-31.6875 35.945312c7.742188 6.378907 11.070312 16.753907 8.476562 26.429688s-10.660156 16.996094-20.554687 18.648438c-2.550781.429687-4.703125 2.140624-5.691406 4.527343-.988281 2.390625-.679688 5.121094.824219 7.226563 5.824218 8.167968 6.355468 19.046875 1.347656 27.722656-5.011719 8.675781-14.703125 13.65625-24.683594 12.695312-2.574219-.253906-5.09375.847657-6.667969 2.898438s-1.980469 4.769531-1.074219 7.195312c3.515626 9.394532 1.207032 20.042969-5.875 27.125-7.082031 7.082032-17.730468 9.386719-27.125 5.875-2.425781-.910156-5.144531-.5-7.191406 1.074219-2.054687 1.574219-3.148437 4.09375-2.902344 6.667969.964844 9.984375-4.019531 19.671875-12.691406 24.683594-8.675781 5.007812-19.554687 4.480468-27.722656-1.347656-2.105469-1.503907-4.839844-1.816407-7.226562-.824219-2.390626.988281-4.101563 3.140625-4.527344 5.691406-1.65625 9.894531-8.976563 17.960937-18.648438 20.554687-9.675781 2.589844-20.050781-.734374-26.429687-8.476562-1.644531-1.996094-4.203125-3-6.765625-2.664062-2.566406.335937-4.777344 1.972656-5.847656 4.324218-4.160157 9.128906-13.320313 15.027344-23.335938 15.027344s-19.175781-5.898438-23.335938-15.027344c-1.070312-2.351562-3.28125-3.988281-5.84375-4.324218-.328124-.042969-.65625-.066407-.980468-.066407-2.222656 0-4.351563.988281-5.785156 2.730469-6.378907 7.742188-16.753907 11.066406-26.429688 8.476562-9.675781-2.59375-16.996094-10.660156-18.648438-20.554687-.429687-2.550781-2.140624-4.703125-4.527343-5.691406-2.390625-.992188-5.121094-.679688-7.226563.824219-8.164062 5.824218-19.046875 6.351562-27.722656 1.347656-8.675781-5.011719-13.65625-14.699219-12.695312-24.683594.25-2.574219-.847657-5.09375-2.898438-6.667969-2.050781-1.578125-4.769531-1.980469-7.195312-1.074219-9.394532 3.511719-20.039063 1.207032-27.121094-5.875-7.085938-7.085937-9.390625-17.730468-5.875-27.125.90625-2.425781.5-5.144531-1.074219-7.195312s-4.097656-3.152344-6.671875-2.898438c-9.984375.960938-19.671875-4.019531-24.679688-12.695312-5.007812-8.675781-4.480468-19.554688 1.347657-27.71875 1.5-2.105469 1.8125-4.839844.824219-7.226562-.992188-2.390626-3.144532-4.101563-5.695313-4.527344-9.890625-1.65625-17.960937-8.976563-20.550781-18.648438-2.59375-9.679687.730468-20.050781 8.472656-26.429687 1.996094-1.644531 3.003906-4.203125 2.667969-6.769531-.339844-2.5625-1.972657-4.773438-4.328125-5.84375-9.128906-4.160157-15.027344-13.320313-15.027344-23.335938s5.898438-19.175781 15.027344-23.335938c2.351562-1.070312 3.988281-3.28125 4.324218-5.84375.339844-2.5625-.667968-5.121093-2.664062-6.765624-7.742188-6.378907-11.066406-16.753907-8.476562-26.429688 2.59375-9.675781 10.660156-16.996094 20.554687-18.648438 2.550781-.429687 4.703125-2.140624 5.695313-4.527343.988281-2.390625.675781-5.121094-.824219-7.226563-5.828125-8.167968-6.355469-19.046875-1.347657-27.722656 5.007813-8.675781 14.695313-13.65625 24.679688-12.695312 2.574219.25 5.097656-.847657 6.671875-2.898438s1.976563-4.769531 1.074219-7.195312c-3.515625-9.394532-1.210938-20.039063 5.871094-27.125 7.082031-7.082032 17.730468-9.386719 27.125-5.875 2.421874.90625 5.140624.503906 7.191406-1.074219 2.054687-1.574219 3.148437-4.09375 2.902344-6.667969-.964844-9.984375 4.019531-19.671875 12.691406-24.683594 8.679687-5.003906 19.558594-4.476562 27.722656 1.347656 2.105469 1.503907 4.835938 1.816407 7.226562.824219 2.390626-.988281 4.101563-3.140625 4.527344-5.691406 1.65625-9.894531 8.976563-17.960937 18.648438-20.554687 9.679687-2.589844 20.050781.734374 26.429687 8.476562 1.644531 1.996094 4.207031 3.003906 6.765625 2.667969 2.566406-.339844 4.777344-1.972657 5.847656-4.328125 4.160157-9.128906 13.320313-15.027344 23.335938-15.027344s19.175781 5.898438 23.335938 15.027344c1.070312 2.355468 3.28125 3.988281 5.84375 4.328125 2.5625.335937 5.121093-.671875 6.769531-2.667969 6.378906-7.742188 16.746093-11.070312 26.425781-8.476562 9.675781 2.59375 16.996094 10.660156 18.652344 20.554687.425781 2.550781 2.136718 4.703125 4.527344 5.691406 2.386718.992188 5.121093.679688 7.226562-.824219 8.160156-5.824218 19.042969-6.355468 27.71875-1.347656 8.675781 5.011719 13.65625 14.699219 12.695312 24.683594-.25 2.574219.847657 5.09375 2.898438 6.667969s4.773438 1.984375 7.195312 1.074219c9.390626-3.511719 20.039063-1.207032 27.125 5.875 7.082032 7.085937 9.386719 17.730468 5.871094 27.125-.902344 2.425781-.5 5.144531 1.074219 7.195312 1.578125 2.050781 4.09375 3.148438 6.671875 2.898438 9.96875-.960938 19.671875 4.019531 24.679688 12.695312 5.011718 8.675781 4.480468 19.554688-1.347657 27.722656-1.5 2.101563-1.8125 4.835938-.820312 7.226563.988281 2.390625 3.140625 4.097656 5.691406 4.527343 9.894531 1.652344 17.960937 8.972657 20.554687 18.648438s-.734374 20.050781-8.476562 26.429688c-1.996094 1.644531-3.003906 4.203124-2.667969 6.765624.339844 2.5625 1.972657 4.773438 4.328125 5.84375 9.128906 4.160157 15.027344 13.320313 15.027344 23.335938s-5.898438 19.175781-15.027344 23.335938c-2.355468 1.070312-3.988281 3.28125-4.324218 5.84375-.339844 2.566406.667968 5.121093 2.664062 6.765624zm0 0"/><path d="m463.085938 248.5h-17.511719c-.832031-21.324219-5.199219-41.757812-12.535157-60.726562-.136718-.503907-.320312-.984376-.554687-1.441407-2.527344-6.382812-5.402344-12.589843-8.582031-18.609375l15.1875-8.769531c3.585937-2.070313 4.816406-6.65625 2.746094-10.242187-2.070313-3.589844-6.660157-4.816407-10.246094-2.746094l-15.203125 8.777344c-15.085938-23.808594-35.320313-44.042969-59.128907-59.128907l8.777344-15.203125c2.074219-3.585937.84375-8.175781-2.742187-10.246094-3.585938-2.070312-8.175781-.84375-10.246094 2.746094l-8.769531 15.1875c-24.300782-12.832031-51.710938-20.535156-80.777344-21.671875v-17.507812c0-4.144531-3.355469-7.5-7.5-7.5-4.140625 0-7.5 3.355469-7.5 7.5v17.503906c-28.300781 1.125-55.929688 8.597656-80.792969 21.652344l-8.753906-15.164063c-2.070313-3.585937-6.660156-4.816406-10.246094-2.746094-3.585937 2.074219-4.816406 6.660157-2.742187 10.246094l8.746094 15.148438c-6.945313 4.382812-13.621094 9.226562-19.980469 14.515625-3.183594 2.648437-3.617188 7.378906-.96875 10.5625 2.648437 3.183593 7.378906 3.617187 10.5625.96875 31.269531-26.015625 70.929687-40.339844 111.675781-40.339844 70.003906 0 130.511719 41.382813 158.378906 100.964844h-59.363281c-23.277344-31.191407-59.996094-49.699219-99.015625-49.699219s-75.738281 18.507812-99.011719 49.699219h-59.382812c6.601562-14.183594 15.113281-27.515625 25.402343-39.570313 2.6875-3.152344 2.3125-7.886718-.839843-10.574218-3.152344-2.6875-7.882813-2.3125-10.574219.835937-5.886719 6.902344-11.230469 14.191406-16.027344 21.792969l-15.15625-8.75c-3.589844-2.074219-8.175781-.84375-10.246094 2.742187-2.070312 3.589844-.839843 8.175781 2.746094 10.246094l15.148438 8.746094c-3.164063 6.027343-6 12.214843-8.5 18.535156-.261719.5-.46875 1.039063-.617188 1.601563-7.417968 19.285156-11.695312 39.773437-12.519531 60.664062h-17.507813c-4.140624 0-7.5 3.355469-7.5 7.5 0 4.140625 3.359376 7.5 7.5 7.5h17.511719c.832031 21.324219 5.199219 41.753906 12.53125 60.71875.136719.507812.324219.996094.558594 1.453125 2.527344 6.378906 5.402344 12.585937 8.582031 18.605469l-15.1875 8.769531c-3.585937 2.070313-4.816406 6.65625-2.746094 10.242187 1.390626 2.40625 3.910157 3.753907 6.503907 3.753907 1.269531 0 2.5625-.324219 3.742187-1.007813l15.203125-8.777344c15.085938 23.808594 35.320313 44.042969 59.128907 59.128907l-8.777344 15.203125c-2.074219 3.585937-.84375 8.171875 2.742187 10.246094 1.183594.679687 2.472657 1.003906 3.742188 1.003906 2.59375 0 5.113281-1.347656 6.503906-3.75l8.769531-15.1875c24.300782 12.832031 51.710938 20.535156 80.777344 21.671875v17.507812c0 4.144531 3.359375 7.5 7.5 7.5 4.144531 0 7.5-3.355469 7.5-7.5v-17.507812c29.066406-1.136719 56.472656-8.839844 80.777344-21.671875l8.769531 15.1875c1.390625 2.40625 3.910156 3.75 6.503906 3.75 1.269531 0 2.5625-.324219 3.742188-1.003906 3.585937-2.074219 4.816406-6.660157 2.742187-10.246094l-8.777344-15.203125c23.808594-15.085938 44.042969-35.320313 59.128907-59.128907l15.203125 8.777344c1.179687.683594 2.46875 1.007813 3.742187 1.007813 2.59375 0 5.113281-1.347657 6.503907-3.753907 2.070312-3.585937.839843-8.171874-2.746094-10.242187l-15.1875-8.769531c3.183594-6.027344 6.058594-12.238282 8.589844-18.625.226562-.449219.410156-.925782.542968-1.421875 7.335938-18.96875 11.703125-39.402344 12.539063-60.730469h17.507812c4.144531 0 7.5-3.359375 7.5-7.5 0-4.144531-3.355469-7.5-7.496093-7.5zm-207.085938-100.964844c30.351562 0 59.113281 12.753906 79.503906 34.699219h-159.007812c20.390625-21.945313 49.152344-34.699219 79.503906-34.699219zm164.554688 49.699219c6.582031 18.375 10.179687 38.15625 10.179687 58.769531 0 20.605469-3.597656 40.390625-10.175781 58.765625h-329.117188c-6.578125-18.375-10.175781-38.15625-10.175781-58.765625 0-20.179687 3.507813-40.050781 10.191406-58.769531zm-85.050782 132.53125c-20.390625 21.949219-49.152344 34.703125-79.503906 34.703125s-59.113281-12.753906-79.503906-34.703125zm-79.503906 100.972656c-70.003906 0-130.515625-41.386719-158.378906-100.972656h59.363281c23.277344 31.195313 59.996094 49.703125 99.015625 49.703125 39.023438 0 75.738281-18.507812 99.015625-49.703125h59.363281c-27.863281 59.585937-88.375 100.972656-158.378906 100.972656zm0 0"/><path d="m131.75 280.066406c13.269531 0 24.066406-10.792968 24.066406-24.066406 0-13.269531-10.796875-24.066406-24.066406-24.066406s-24.066406 10.796875-24.066406 24.066406c0 13.273438 10.796875 24.066406 24.066406 24.066406zm0-33.132812c5 0 9.066406 4.066406 9.066406 9.066406s-4.066406 9.066406-9.066406 9.066406-9.066406-4.066406-9.066406-9.066406 4.066406-9.066406 9.066406-9.066406zm0 0"/><path d="m380.25 280.066406c13.273438 0 24.066406-10.792968 24.066406-24.066406 0-13.269531-10.796875-24.066406-24.066406-24.066406s-24.066406 10.796875-24.066406 24.066406c0 13.273438 10.796875 24.066406 24.066406 24.066406zm0-33.132812c5 0 9.066406 4.066406 9.066406 9.066406s-4.066406 9.066406-9.066406 9.066406-9.066406-4.066406-9.066406-9.066406 4.066406-9.066406 9.066406-9.066406zm0 0"/><path d="m227.484375 269.375-4.164063 24.273438c-.480468 2.8125.675782 5.65625 2.984376 7.335937 1.308593.949219 2.855468 1.429687 4.410156 1.429687 1.191406 0 2.390625-.285156 3.488281-.859374l21.796875-11.460938 21.796875 11.460938c2.527344 1.324218 5.589844 1.105468 7.898437-.574219 2.308594-1.675781 3.464844-4.519531 2.984376-7.332031l-4.164063-24.273438 17.632813-17.1875c2.046874-1.996094 2.78125-4.972656 1.898437-7.691406-.882813-2.714844-3.230469-4.691406-6.054687-5.101563l-24.367188-3.542969-10.898438-22.082031c-1.265624-2.558593-3.871093-4.179687-6.726562-4.179687s-5.460938 1.621094-6.726562 4.179687l-10.898438 22.082031-24.367188 3.542969c-2.828124.410157-5.171874 2.386719-6.054687 5.101563-.882813 2.71875-.148437 5.695312 1.898437 7.691406zm16.949219-19.246094c2.445312-.355468 4.554687-1.890625 5.648437-4.101562l5.917969-11.992188 5.917969 11.992188c1.09375 2.210937 3.203125 3.746094 5.648437 4.101562l13.230469 1.921875-9.574219 9.335938c-1.769531 1.722656-2.574218 4.207031-2.15625 6.636719l2.261719 13.179687-11.835937-6.222656c-1.09375-.574219-2.292969-.859375-3.492188-.859375s-2.398438.285156-3.488281.859375l-11.835938 6.222656 2.261719-13.179687c.417969-2.429688-.390625-4.914063-2.160156-6.636719l-9.574219-9.335938zm0 0"/></svg>