<?xml version="1.0" standalone="no"?><svg xmlns="http://www.w3.org/2000/svg" viewBox="0 0 1440 320"><path fill="#c2f8cb" fill-opacity="1" d="M0,32L12,37.3C24,43,48,53,72,101.3C96,149,120,235,144,245.3C168,256,192,192,216,181.3C240,171,264,213,288,213.3C312,213,336,171,360,160C384,149,408,171,432,181.3C456,192,480,192,504,192C528,192,552,192,576,202.7C600,213,624,235,648,245.3C672,256,696,256,720,266.7C744,277,768,299,792,298.7C816,299,840,277,864,245.3C888,213,912,171,936,144C960,117,984,107,1008,117.3C1032,128,1056,160,1080,154.7C1104,149,1128,107,1152,96C1176,85,1200,107,1224,112C1248,117,1272,107,1296,112C1320,117,1344,139,1368,144C1392,149,1416,139,1428,133.3L1440,128L1440,0L1428,0C1416,0,1392,0,1368,0C1344,0,1320,0,1296,0C1272,0,1248,0,1224,0C1200,0,1176,0,1152,0C1128,0,1104,0,1080,0C1056,0,1032,0,1008,0C984,0,960,0,936,0C912,0,888,0,864,0C840,0,816,0,792,0C768,0,744,0,720,0C696,0,672,0,648,0C624,0,600,0,576,0C552,0,528,0,504,0C480,0,456,0,432,0C408,0,384,0,360,0C336,0,312,0,288,0C264,0,240,0,216,0C192,0,168,0,144,0C120,0,96,0,72,0C48,0,24,0,12,0L0,0Z"></path></svg>